<svg width="40" height="40" viewBox="0 0 40 40" fill="none" xmlns="http://www.w3.org/2000/svg">
<path d="M12.4001 37.8885L11.1173 30.6193C10.926 29.5355 11.6463 28.5009 12.7291 28.304L16.7429 27.5742L20.0001 31.9171" stroke="#FF5540" stroke-width="1.3" stroke-linecap="round" stroke-linejoin="round"/>
<path d="M27.5999 37.8885L28.8827 30.6193C29.074 29.5355 28.3537 28.5009 27.2709 28.304L23.2571 27.5742L19.9999 31.9171" stroke="#FF5540" stroke-width="1.3" stroke-linecap="round" stroke-linejoin="round"/>
<path d="M15.115 17.2818L14.0293 14.0252C15.6579 11.8538 21.0864 9.13954 25.9722 14.0249L24.8864 17.2818" stroke="#FF5540" stroke-width="1.3" stroke-linecap="round" stroke-linejoin="round"/>
<circle cx="20.0007" cy="20.5163" r="5.32143" stroke="#FF5540" stroke-width="1.3"/>
<path d="M38.35 13.3711V36C38.35 37.2979 37.2979 38.35 36 38.35H4C2.70213 38.35 1.65 37.2979 1.65 36V13.3711C1.65 11.7064 2.60006 10.1877 4.09702 9.45942L18.097 2.64861C19.2984 2.06417 20.7016 2.06417 21.903 2.64861L35.903 9.45942C37.3999 10.1877 38.35 11.7064 38.35 13.3711Z" stroke="#616161" stroke-width="1.3"/>
</svg>
