<svg width="40" height="40" viewBox="0 0 40 40" fill="none" xmlns="http://www.w3.org/2000/svg">
<path d="M20 8.77734C22.4959 8.77734 24.527 10.8087 24.527 13.3047C24.527 15.8007 22.4959 17.8319 20 17.8319C17.5041 17.8319 15.4727 15.8006 15.4727 13.3047C15.4727 10.8088 17.5041 8.77734 20 8.77734Z" stroke="#FF5540"/>
<path d="M38.525 38.0441H20.475V34.1421H22.4344C25.7538 34.1421 28.4544 31.4403 28.4544 28.1211V25.6812C28.4544 25.4188 28.242 25.2062 27.9794 25.2062H25.5386C23.4138 25.2062 21.5465 26.315 20.475 27.9819V24.0391H19.525V29.7502C18.4557 28.0716 16.583 26.9521 14.4494 26.9521H12.0085C11.7459 26.9521 11.5335 27.1648 11.5335 27.4271V29.8689C11.5335 33.1881 14.2332 35.8881 17.5526 35.8881H19.525V38.0441H1.475C1.21245 38.0441 1 38.2568 1 38.5191C1 38.7815 1.21245 38.9941 1.475 38.9941H38.525C38.7875 38.9941 39 38.7815 39 38.5191C39 38.2568 38.7875 38.0441 38.525 38.0441ZM25.5386 26.1562H27.5044V28.1211C27.5044 30.9164 25.2296 33.1921 22.4344 33.1921H20.475V31.0973C20.5439 28.3613 22.7866 26.1562 25.5386 26.1562ZM19.5185 34.9381H17.5526C14.7574 34.9381 12.4835 32.6644 12.4835 29.8689V27.9021H14.4494C17.2446 27.9021 19.5185 30.1779 19.5185 32.9731V33.6671V34.9381Z" fill="#616161" stroke="#616161" stroke-width="0.35"/>
<path d="M16.0207 20.3989C15.9622 20.189 15.7716 20.051 15.5633 20.051C15.5239 20.051 15.484 20.0558 15.4441 20.066C13.6522 20.5292 11.7563 19.7332 10.8333 18.1333C9.90923 16.533 10.169 14.4934 11.465 13.1737C11.6464 12.9888 11.6464 12.6929 11.465 12.508C10.169 11.1883 9.90923 9.14869 10.8333 7.54835C11.7563 5.94778 13.6517 5.15132 15.4441 5.61542C15.6955 5.67966 15.9511 5.53215 16.0207 5.28259C16.5156 3.50042 18.1522 2.25586 20.0002 2.25586C21.8478 2.25586 23.4843 3.50042 23.9792 5.28259C24.0484 5.53215 24.3049 5.6785 24.5558 5.61542C26.345 5.15294 28.2431 5.94755 29.1667 7.54835C30.0907 9.14869 29.8309 11.1883 28.5349 12.508C28.3535 12.6929 28.3535 12.9888 28.5349 13.1737C29.8309 14.4934 30.0907 16.533 29.1667 18.1333C28.2431 19.7334 26.3478 20.529 24.5558 20.066C24.3058 20.0027 24.0488 20.1493 23.9792 20.3989C23.4843 22.181 21.8478 23.4256 20.0002 23.4256C18.1522 23.4256 16.5156 22.181 16.0207 20.3989Z" stroke="#FF5540" stroke-width="1.3"/>
</svg>
